<?xml version="1.0" standalone="no"?>
<!DOCTYPE svg PUBLIC "-//W3C//DTD SVG 20010904//EN"
 "http://www.w3.org/TR/2001/REC-SVG-20010904/DTD/svg10.dtd">
<svg version="1.0" xmlns="http://www.w3.org/2000/svg"
 width="420.000000pt" height="420.000000pt" viewBox="0 0 420.000000 420.000000"
 preserveAspectRatio="xMidYMid meet">
<metadata>
Created by potrace 1.14, written by Peter Selinger 2001-2017
</metadata>
<g transform="translate(0.000000,420.000000) scale(0.100000,-0.100000)"
fill="#000000" stroke="none">
<path d="M1920 4119 c-25 -4 -70 -10 -100 -13 -30 -4 -72 -11 -92 -15 -21 -5
-38 -7 -38 -4 0 3 -7 0 -15 -7 -8 -7 -15 -10 -15 -7 0 11 -235 -62 -310 -95
-24 -11 -49 -21 -55 -22 -11 -2 -168 -83 -200 -103 -11 -7 -26 -15 -33 -19
-45 -23 -242 -163 -242 -173 0 -3 -11 -13 -24 -21 -43 -26 -195 -179 -261
-263 -16 -21 -35 -44 -40 -50 -6 -7 -26 -34 -45 -62 -19 -27 -38 -51 -42 -53
-5 -2 -8 -8 -8 -13 0 -5 -16 -33 -35 -64 -33 -51 -111 -205 -144 -285 -36 -87
-97 -285 -106 -350 -2 -14 -6 -34 -8 -45 -5 -21 -12 -69 -24 -150 -8 -57 -8
-374 0 -452 3 -29 11 -78 17 -110 6 -32 13 -67 14 -78 2 -11 6 -29 9 -40 3
-11 9 -33 12 -50 9 -47 10 -49 18 -63 5 -6 6 -12 3 -12 -3 0 2 -16 10 -35 8
-19 11 -35 8 -35 -4 0 -2 -6 3 -13 5 -6 20 -41 33 -77 45 -122 186 -389 211
-398 5 -2 9 -9 9 -16 0 -7 9 -21 20 -31 11 -10 20 -22 20 -27 0 -5 6 -15 13
-23 6 -7 26 -30 44 -51 167 -206 362 -371 588 -499 79 -45 204 -105 218 -105
7 0 17 -4 23 -9 8 -7 145 -57 184 -67 8 -2 51 -13 95 -24 44 -11 96 -23 115
-26 19 -3 46 -7 60 -9 99 -15 166 -19 315 -19 166 0 244 6 365 29 14 3 39 7
55 10 76 12 353 102 412 134 10 5 52 26 93 47 144 72 343 208 437 299 17 16
39 37 50 46 25 22 132 137 168 182 17 21 38 48 48 60 10 12 26 34 35 50 9 15
20 27 24 27 4 0 8 5 8 12 0 6 6 19 14 27 14 16 34 49 72 121 11 19 21 37 24
40 4 4 53 108 91 195 59 137 118 374 136 548 9 87 9 358 -1 442 -20 191 -93
453 -171 621 -19 41 -35 79 -35 84 0 6 -4 10 -10 10 -5 0 -10 6 -10 13 0 26
-160 270 -227 347 -120 137 -193 210 -303 299 -25 20 -47 38 -50 41 -3 3 -12
10 -22 15 -9 6 -49 32 -90 60 -161 109 -469 245 -611 269 -16 3 -43 9 -60 15
-18 5 -48 12 -67 15 -19 2 -46 7 -60 10 -77 18 -432 28 -520 15z"/>
</g>
</svg>
